<?xml version="1.0" encoding="UTF-8" standalone="no"?>
<svg
   xmlns:dc="http://purl.org/dc/elements/1.1/"
   xmlns:cc="http://creativecommons.org/ns#"
   xmlns:rdf="http://www.w3.org/1999/02/22-rdf-syntax-ns#"
   xmlns:svg="http://www.w3.org/2000/svg"
   xmlns="http://www.w3.org/2000/svg"
   id="svg112"
   xml:space="preserve"
   viewBox="435 95 600 600"
   height="600"
   width="600"
   version="1.1"><metadata
   id="metadata116"><rdf:RDF><cc:Work
       rdf:about=""><dc:format>image/svg+xml</dc:format><dc:type
         rdf:resource="http://purl.org/dc/dcmitype/StillImage" /></cc:Work></rdf:RDF></metadata>
<desc
   id="desc2">Created by Logonomy.ir</desc>
<defs
   id="defs4">
</defs>


<g
   id="9ff5925f-b6c7-43a8-8d96-cb4385610da1"
   transform="matrix(1.33,0,0,1.33,735,531.18)">
		<g
   id="text8"
   style="font-style:normal;font-weight:normal;font-size:30px;font-family:en_09b86804;white-space:pre;opacity:1;fill:#000000;fill-rule:nonzero;stroke:#ffffff;stroke-width:1;stroke-linecap:butt;stroke-linejoin:miter;stroke-miterlimit:4;stroke-dasharray:none;stroke-dashoffset:0;stroke-opacity:0"
   aria-label="Barbita beauty"><path
     id="path118"
     style=""
     d="m -113.3,-13.92 c -0.21,0.33 -0.36,0.81 -0.36,1.08 0,0.87 -2.43,2.28 -0.9,3.2100001 0.78,0.48 0.27,0.42 -0.3,5.07 -0.36,3.06 -1.17,5.76 -1.17,6.78 0,0.84 -0.45,1.2 -1.05,0.78 -0.48,-0.33 -1.41,-0.42 -1.83,-0.15 -0.66,0.39 -0.9,2.04 0.99,2.76 0.42,0.15 0.87,0.51 1.02,0.78 0.51,1.26 2.64,1.59 3.18,0.51 0.24,-0.45 0.51,-0.6 1.44,-0.72 0.63,-0.09 1.29,-0.09 1.47,-0.03 0.72,0.24 4.5,-0.54 6,-1.26 1.95,-0.93 3.18,-4.05000002 2.31,-5.91 -0.36,-0.81 -1.68,-2.01 -2.91,-2.67 -0.84,-0.45 -0.93,-0.69 -0.33,-0.87 2.04,-0.63 3.06,-1.17 4.14,-2.19 1.02,-0.93 1.29,-1.35 1.59,-2.49 C -99.349999,-11.7 -99.559999,-12.63 -101.03,-14.1 l -0.6,-0.6 -11.37,0.03 z m 9.99,1.77 c 0.39,0.3 0.45,1.2 0.12,1.98 -0.36,0.8400001 -1.83,2.1900001 -2.88,2.6100001 -1.32,0.54 -4.17,1.32 -4.83,1.32 -0.51,0 -0.54,-0.06 -0.39,-1.11 0.3,-2.22 0.57,-3.2400001 0.99,-3.5100001 0.69,-0.48 2.67,-1.32 3.57,-1.53 1.08,-0.24 2.91,-0.12 3.39,0.24 z m -6.48,9.7200001 c 0.78,0.21 1.95,0.72 2.61,1.14 1.17,0.71999998 1.23,0.80999998 1.2,1.70999998 -0.03,0.84000002 -0.18,1.05000002 -1.08,1.77000002 -1.41,1.08 -1.32,0.63 -2.67,1.14 -1.05,0.39 -2.79,0.39 -3.15,0 -0.33,-0.36 0.57,-5.67 0.99,-5.94 0.36,-0.21 0.45,-0.21 2.04,0.21 z" /><path
     id="path120"
     style=""
     d="m -85.50078,-2.5799999 c -0.51,0.75 -0.72,1.02 -0.96,1.02 -0.24,0 -1.08,-1.32 -2.07,-1.32 -5.07,0 -10.44,4.98 -10.44,8.67 0,0.63 0.24,1.14 0.72,1.53 2.16,1.8 2.49,2.01 3.18,2.01 1.68,0 3.3,-0.69 5.07,-2.22 0.39,-0.36 0.63,-0.51 0.81,-0.51 0.45,0 0.63,2.43 2.13,3.4199999 0.96,0.66 1.8,0.96 2.58,0.96 1.95,0 4.35,-2.0099999 4.35,-2.6699999 0,-0.9 -0.33,-1.35 -1.14,-1.35 -0.78,0 -3.18,0.81 -3.66,0.81 -0.21,0 -0.27,-0.27 -0.27,-0.75 0,-0.93 0.27,-2.52 0.66,-3.3 0.81,-1.74 3.3,-3.66000002 3.3,-5.49 0,-0.72 -1.38,-2.01 -2.22,-2.01 -0.84,0.12 -1.17,0.09 -1.98,1.29 z m -1.59,2.60999998 c 0,0.39 -2.4,2.61000002 -3.84,3.54000002 -2.37,1.56 -3.48,2.19 -3.87,2.19 -0.12,0 -0.18,-0.06 -0.18,-0.18 0,-1.38 3.03,-4.2 5.13,-5.13000002 0.9,-0.42 1.8,-0.63 2.31,-0.63 0.3,0 0.45,0.06 0.45,0.21 z" /><path
     id="path122"
     style=""
     d="m -63.379061,-7.7699999 c 0.93,0 1.83,-0.81 1.62,-1.44 -0.3,-0.72 -1.08,-1.5300001 -1.47,-1.5300001 -0.21,0 -0.63,-0.15 -0.87,-0.33 -0.6,-0.42 -0.87,-0.39 -2.73,0.21 -1.71,0.54 -2.4,0.9600001 -4.5,2.7000001 l -1.32,1.11 -0.66,-0.36 c -0.78,-0.42 -1.95,-0.48 -2.28,-0.12 -0.33,0.36 -0.87,1.68 -1.86,4.65 l -1.5,4.35 c -0.63,1.74 -0.66,2.01 -0.42,2.91 0.45,1.44 1.29,2.31 2.43,2.43 0.84,0.09 1.38,0.15 1.89,-1.95 0.69,-2.61 2.19,-4.05000002 2.88,-5.64000002 0.42,-1.01999998 1.41,-1.73999998 1.41,-2.00999998 0,-0.33 4.47,-4.23 4.47,-4.05 0,0.27 1.74,-0.9 2.91,-0.9 z" /><path
     id="path124"
     style=""
     d="m -58.150624,0.78000008 c 0,0.21 -1.92,3.39000002 -2.22,4.32000002 -0.21,0.69 -0.75,0.9 -0.75,1.47 0,0.18 0.99,2.94 2.64,2.94 1.47,0 1.5,-2.67 2.4,-2.67 0.54,0 1.44,1.98 4.11,1.98 1.83,0 3,-0.72 4.83,-3.27 1.83,-2.49 2.46,-3.81 2.46,-5.07000002 0,-1.2 -0.3,-1.73999998 -1.71,-3.05999998 -0.42,-0.39 -0.81,-0.57 -1.32,-0.57 -0.81,0 -5.13,1.95 -5.46,1.95 -0.06,0 -0.06,-0.03 -0.06,-0.06 0,-0.72 1.14,-1.08 1.26,-2.37 0.54,-0.42 1.8,-5.79 1.8,-7.2900001 0,-1.29 -0.93,-2.01 -1.89,-2.01 -0.72,0 -2.04,0.6 -2.04,1.86 h -0.12 l 0.06,0.33 c -0.3,1.4400001 -1.08,2.8800001 -1.08,4.2900001 0,0.18 0,0.36 0.03,0.51 -0.39,0.69 -0.72,1.56 -0.72,2.34 -0.48,0.78 -2.22,4.25999998 -2.22,4.37999998 z m 8.7,1.50000002 c -1.29,1.74 -2.82,2.91 -3.75,2.91 -0.51,0 -0.84,-0.36 -0.84,-0.54 0,-0.57 4.26,-3.42 5.13,-3.42 0.03,0 0.06,0.03 0.06,0.06 0,0.15 -0.27,0.57 -0.6,1.02 z" /><path
     id="path126"
     style=""
     d="m -40.922655,-7.2899999 c -0.78,1.11 -2.97,9.81 -3,11.97 0,1.02 0.06,1.14 0.9,1.71 1.23,0.9 1.38,0.96 1.86,0.72 0.6,-0.3 0.9,-1.14 1.08,-3 0.15,-1.86 1.05,-5.73 1.74,-7.5 0.27,-0.66 0.45,-1.65 0.45,-2.16 0,-0.84 -0.09,-1.02 -0.75,-1.47 -1.17,-0.81 -1.89,-0.9 -2.31,-0.3 z m 1.5,-6.0000001 c -0.63,0.63 -0.99,1.65 -0.78,2.19 0.24,0.6 1.32,1.2900001 2.34,1.4700001 0.78,0.12 0.99,0.06 1.47,-0.36 0.75,-0.6900001 0.99,-2.1600001 0.42,-2.8200001 -0.84,-1.05 -2.67,-1.32 -3.45,-0.51 z" /><path
     id="path128"
     style=""
     d="m -23.767811,-13.59 c -0.36,0.42 -0.9,1.14 -1.2,1.62 l -0.75,1.29 c -0.51,0.7800001 -1.02,1.9800001 -1.02,2.3100001 0,0.51 0,0.54 -3.6,0.66 -4.23,0.15 -4.8,0.36 -4.68,1.8 0.06,0.87 0.99,2.04 1.86,2.37 0.57,0.21 3.12,0.21 4.05,0 0.39,-0.09 0.39,-0.03 -0.33,2.52 -0.3,1.07999998 -0.63,2.49 -0.75,3.18 -0.27,2.46 0.75,4.44 2.7,5.22 0.93,0.36 1.11,0.36 2.19,0.06 0.93,-0.24 1.74,-0.75 3.63,-2.31 5.46,-4.38000002 5.73,-4.74000002 4.14,-5.82000002 l -0.84,-0.56999998 -1.35,0.44999998 c -1.98,0.66 -3.81,2.55000002 -4.89,3.06000002 -0.81,0.39 -1.44,1.17 -1.68,1.17 -0.36,0 -0.21,-1.35 0.27,-2.88000002 1.2,-3.74999998 1.11,-4.67999998 3.03,-5.12999998 2.4,-0.54 5.31,-2.25 5.07,-2.91 -0.06,-0.09 -0.42,-0.33 -0.78,-0.51 -1.11,-0.57 -0.69,-0.87 -2.07,-0.87 -1.26,0 -1.35,-0.3 -0.39,-1.3200001 1.5,-1.62 1.5,-2.94 0,-3.72 -1.32,-0.69 -1.89,-0.63 -2.67,0.3 z" /><path
     id="path130"
     style=""
     d="m -2.4148425,-2.5799999 c -0.51,0.75 -0.72,1.02 -0.96,1.02 -0.24,0 -1.08,-1.32 -2.07,-1.32 -5.0700005,0 -10.4400005,4.98 -10.4400005,8.67 0,0.63 0.24,1.14 0.72,1.53 2.16,1.8 2.49,2.01 3.18,2.01 1.68,0 3.3000005,-0.69 5.0700005,-2.22 0.39,-0.36 0.63,-0.51 0.81,-0.51 0.45,0 0.63,2.43 2.13,3.4199999 0.96,0.66 1.8,0.96 2.58,0.96 1.94999997,0 4.35,-2.0099999 4.35,-2.6699999 0,-0.9 -0.33,-1.35 -1.14,-1.35 -0.78,0 -3.18,0.81 -3.66,0.81 -0.21,0 -0.27,-0.27 -0.27,-0.75 0,-0.93 0.27,-2.52 0.66,-3.3 0.80999997,-1.74 3.3,-3.66000002 3.3,-5.49 0,-0.72 -1.38000003,-2.01 -2.22000003,-2.01 -0.83999997,0.12 -1.16999997,0.09 -1.97999997,1.29 z m -1.59,2.60999998 c 0,0.39 -2.4,2.61000002 -3.84,3.54000002 -2.3700005,1.56 -3.4800005,2.19 -3.8700005,2.19 -0.12,0 -0.18,-0.06 -0.18,-0.18 0,-1.38 3.0300005,-4.2 5.1300005,-5.13000002 0.9,-0.42 1.8,-0.63 2.31,-0.63 0.3,0 0.45,0.06 0.45,0.21 z" /><path
     id="path132"
     style=""
     d="m 12.513439,0.78000008 c 0,0.21 -1.92,3.39000002 -2.22,4.32000002 -0.21,0.69 -0.7500003,0.9 -0.7500003,1.47 0,0.18 0.9900003,2.94 2.6400003,2.94 1.47,0 1.5,-2.67 2.4,-2.67 0.54,0 1.44,1.98 4.11,1.98 1.83,0 3,-0.72 4.83,-3.27 1.83,-2.49 2.46,-3.81 2.46,-5.07000002 0,-1.2 -0.3,-1.73999998 -1.71,-3.05999998 -0.42,-0.39 -0.81,-0.57 -1.32,-0.57 -0.81,0 -5.13,1.95 -5.46,1.95 -0.06,0 -0.06,-0.03 -0.06,-0.06 0,-0.72 1.14,-1.08 1.26,-2.37 0.54,-0.42 1.8,-5.79 1.8,-7.2900001 0,-1.29 -0.93,-2.01 -1.89,-2.01 -0.72,0 -2.04,0.6 -2.04,1.86 h -0.12 l 0.06,0.33 c -0.3,1.4400001 -1.08,2.8800001 -1.08,4.2900001 0,0.18 0,0.36 0.03,0.51 -0.39,0.69 -0.72,1.56 -0.72,2.34 -0.48,0.78 -2.22,4.25999998 -2.22,4.37999998 z m 8.7,1.50000002 c -1.29,1.74 -2.82,2.91 -3.75,2.91 -0.51,0 -0.84,-0.36 -0.84,-0.54 0,-0.57 4.26,-3.42 5.13,-3.42 0.03,0 0.06,0.03 0.06,0.06 0,0.15 -0.27,0.57 -0.6,1.02 z" /><path
     id="path134"
     style=""
     d="m 35.111407,-6.4799999 c -1.86,0.69 -4.95,3.12 -5.61,4.47 -0.39,0.81 -1.89,3.15 -2.31,3.96 -0.39,0.81 -0.57,3.3 -0.24,3.48 0.12,0.09 0.24,0.36 0.24,0.57 0,0.54 1.2,1.77 2.46,2.55 1.32,0.81 3.45,1.38 4.62,1.2 2.46,-0.36 6.75,-2.76 7.05,-3.93 0.18,-0.69 -0.33,-1.77 -0.93,-1.98 -0.39,-0.15 -2.97,0.75 -3.66,1.26 -0.18,0.15 -0.48,0.27 -0.66,0.27 -0.15,0 -0.6,0.21 -0.99,0.48 -0.93,0.63 -3.3,0.81 -3.93,0.3 -0.81,-0.66 -0.78,-3.12 0.03,-2.85 0.69,0.21 4.77,-0.36 5.91,-0.84 1.5,-0.6 2.97,-1.77000002 3.48,-2.73000002 0.48,-0.98999998 0.45,-2.54999998 -0.09,-3.50999998 -0.63,-1.08 -0.87,-1.32 -2.28,-2.25 -1.26,-0.81 -1.98,-0.93 -3.09,-0.54 z m 1.68,3.93 c -0.33,0.78 -1.68,1.85999998 -2.64,2.09999998 -0.45,0.12 -0.9,0.18 -0.96,0.12 -0.21,-0.21 1.41,-1.82999998 2.46,-2.45999998 1.08,-0.66 1.53,-0.57 1.14,0.24 z" /><path
     id="path136"
     style=""
     d="m 55.534376,-2.5799999 c -0.51,0.75 -0.72,1.02 -0.96,1.02 -0.24,0 -1.08,-1.32 -2.07,-1.32 -5.07,0 -10.44,4.98 -10.44,8.67 0,0.63 0.24,1.14 0.72,1.53 2.16,1.8 2.49,2.01 3.18,2.01 1.68,0 3.3,-0.69 5.07,-2.22 0.39,-0.36 0.63,-0.51 0.81,-0.51 0.45,0 0.63,2.43 2.13,3.4199999 0.96,0.66 1.8,0.96 2.58,0.96 1.95,0 4.35,-2.0099999 4.35,-2.6699999 0,-0.9 -0.33,-1.35 -1.14,-1.35 -0.78,0 -3.18,0.81 -3.66,0.81 -0.21,0 -0.27,-0.27 -0.27,-0.75 0,-0.93 0.27,-2.52 0.66,-3.3 0.81,-1.74 3.3,-3.66000002 3.3,-5.49 0,-0.72 -1.38,-2.01 -2.22,-2.01 -0.84,0.12 -1.17,0.09 -1.98,1.29 z m -1.59,2.60999998 c 0,0.39 -2.4,2.61000002 -3.84,3.54000002 -2.37,1.56 -3.48,2.19 -3.87,2.19 -0.12,0 -0.18,-0.06 -0.18,-0.18 0,-1.38 3.03,-4.2 5.13,-5.13000002 0.9,-0.42 1.8,-0.63 2.31,-0.63 0.3,0 0.45,0.06 0.45,0.21 z" /><path
     id="path138"
     style=""
     d="m 81.676095,5.2800001 c 0,-0.48 -1.86,-1.74 -2.31,-1.74 -0.69,0 -1.74,0.63 -2.1,1.68 -0.75,2.01 -1.59,1.23 -2.19,1.23 -0.12,0 -0.21,-0.09 -0.21,-0.27 0,-0.24 0.15,-0.63 0.39,-1.11 1.14,-2.46 3.24,-8.46 3.24,-9.3 0,-0.42 -1.44,-2.22 -2.07,-2.22 -0.06,0 -0.12,0 -0.15,0.06 -2.94,3 -8.04,11.31 -9.78,11.31 -0.33,0 -0.54,-0.33 -0.54,-1.14 0,-1.32 0.51,-3.87000002 1.77,-8.16 0.54,-0.63 0.72,-1.14 0.72,-1.5 0,-0.51 -0.27,-0.81 -0.27,-0.96 0,-0.27 -0.69,-0.36 -1.47,-0.36 -1.05,0 -2.28,0.15 -2.43,0.33 -0.09,0.12 -0.33,0.93 -0.45,1.77 -0.42,2.43 -0.72,1.83 -0.87,3.69 -0.15,2.12999998 -1.2,4.32 -1.2,7.38 0,1.83 1.86,4.0499999 3.27,4.0499999 0.45,0 2.58,-1.1099999 2.58,-1.4699999 0,-0.3 2.67,-3.18 2.94,-3.15 0.48,0 -0.21,3.51 1.77,4.38 1.2,0.5399999 1.68,0.6899999 2.28,0.6899999 3,0 4.77,-1.4099999 5.49,-2.3399999 0.15,-0.18 1.65,-2.49 1.65,-2.85 z" /><path
     id="path140"
     style=""
     d="m 94.53297,-13.59 c -0.36,0.42 -0.9,1.14 -1.2,1.62 l -0.75,1.29 c -0.51,0.7800001 -1.02,1.9800001 -1.02,2.3100001 0,0.51 0,0.54 -3.6,0.66 -4.23,0.15 -4.8,0.36 -4.68,1.8 0.06,0.87 0.99,2.04 1.86,2.37 0.57,0.21 3.12,0.21 4.05,0 0.39,-0.09 0.39,-0.03 -0.33,2.52 -0.3,1.07999998 -0.63,2.49 -0.75,3.18 -0.27,2.46 0.75,4.44 2.7,5.22 0.93,0.36 1.11,0.36 2.19,0.06 0.93,-0.24 1.74,-0.75 3.63,-2.31 5.46,-4.38000002 5.73,-4.74000002 4.14,-5.82000002 l -0.84,-0.56999998 -1.35,0.44999998 c -1.98,0.66 -3.81,2.55000002 -4.89,3.06000002 -0.81,0.39 -1.44,1.17 -1.68,1.17 -0.36,0 -0.21,-1.35 0.27,-2.88000002 1.2,-3.74999998 1.11,-4.67999998 3.03,-5.12999998 2.4,-0.54 5.31,-2.25 5.07,-2.91 -0.06,-0.09 -0.42,-0.33 -0.78,-0.51 -1.11,-0.57 -0.69,-0.87 -2.07,-0.87 -1.26,0 -1.35,-0.3 -0.39,-1.3200001 1.5,-1.62 1.5,-2.94 0,-3.72 -1.32,-0.69 -1.89,-0.63 -2.67,0.3 z" /><path
     id="path142"
     style=""
     d="m 117.32594,-2.5799999 c 0,-0.09 0.51,-0.69 1.11,-1.32 1.32,-1.44 1.41,-2.25 0.36,-2.97 -0.42,-0.27 -0.81,-0.48 -0.93,-0.48 -0.63,0 -0.45,-1.23 -2.34,-0.18 -0.51,0.27 -0.72,0.54 -0.66,0.75 0.06,0.18 -0.51,1.05 -1.32,2.1 -1.98,2.52 -2.94,4.76999998 -3.21,4.76999998 -0.24,0 -2.04,-3.32999998 -2.28,-4.16999998 -0.72,-2.79 -3.93,-4.59 -5.13,-2.91 -0.93,1.29 2.04,4.41 2.04,4.89 0,0.15 1.44,2.99999998 1.98,3.9 1.47,2.55 0.12,2.67 0.12,3.66 0,0.69 -1.47,1.65 -3.36,5.3099999 -1.29,2.46 -1.86,2.67 -0.45,3.93 0.69,0.63 0.99,0.75 1.83,0.75 1.23,0 1.74,-0.48 2.34,-2.04 0.6,-1.53 1.8,-3.21 1.8,-3.5399999 0,-0.45 2.01,-2.49 4.17,-6.48 0.81,-1.47 2.4,-3.42000002 2.4,-3.66000002 0,-0.24 1.65,-2.12999998 1.65,-2.36999998 z" /></g>
</g>
<g
   id="3345e494-967f-4ffc-8f1e-412b0f69b852"
   transform="matrix(2.03,0,0,2.03,734.73,351.25)">
<g
   id="g109"
   style="vector-effect:non-scaling-stroke">
		<g
   id="Layer_1-2"
   transform="matrix(0.61,0,0,0.61,-62.29,-57.86)">
<linearGradient
   y2="26.57"
   x2="40.66"
   y1="26.57"
   x1="0"
   gradientUnits="userSpaceOnUse"
   id="SVGID_33">
<stop
   id="stop11"
   style="stop-color:rgb(14,16,61);stop-opacity: 1"
   offset="0%" />
<stop
   id="stop13"
   style="stop-color:rgb(211,188,192);stop-opacity: 1"
   offset="50%" />
<stop
   id="stop15"
   style="stop-color:rgb(165,102,139);stop-opacity: 1"
   offset="100%" />
</linearGradient>
<path
   id="path18"
   d="M 0,0 V 53.14 C 0,53.14 23.75,37.84 40.66,0 Z"
   transform="translate(-20.33,-26.57)"
   style="opacity:1;fill:url(#SVGID_33);fill-rule:nonzero;stroke:none;stroke-width:1;stroke-linecap:butt;stroke-linejoin:miter;stroke-miterlimit:4;stroke-dasharray:none;stroke-dashoffset:0" />
</g>
		<g
   id="g30"
   transform="matrix(0.61,0,0,0.61,-41.79,-30.6)">
<linearGradient
   y2="71.459999"
   x2="108.16"
   y1="71.459999"
   x1="0"
   gradientUnits="userSpaceOnUse"
   id="SVGID_34">
<stop
   id="stop21"
   style="stop-color:rgb(14,16,61);stop-opacity: 1"
   offset="0%" />
<stop
   id="stop23"
   style="stop-color:rgb(211,188,192);stop-opacity: 1"
   offset="50%" />
<stop
   id="stop25"
   style="stop-color:rgb(165,102,139);stop-opacity: 1"
   offset="100%" />
</linearGradient>
<path
   id="path28"
   d="M 61.6,0 C 61.6,0 51.53,39.45 0,83.34 v 59.58 c 0,0 66.29,-7.65 108.16,-142.92 z"
   transform="translate(-54.08,-71.46)"
   style="opacity:1;fill:url(#SVGID_34);fill-rule:nonzero;stroke:none;stroke-width:1;stroke-linecap:butt;stroke-linejoin:miter;stroke-miterlimit:4;stroke-dasharray:none;stroke-dashoffset:0" />
</g>
		<g
   id="g41"
   transform="matrix(0.61,0,0,0.61,-35.91,-12.71)">
<linearGradient
   y2="100.91"
   x2="127.53"
   y1="100.91"
   x1="0"
   gradientUnits="userSpaceOnUse"
   id="SVGID_35">
<stop
   id="stop32"
   style="stop-color:rgb(14,16,61);stop-opacity: 1"
   offset="0%" />
<stop
   id="stop34"
   style="stop-color:rgb(211,188,192);stop-opacity: 1"
   offset="50%" />
<stop
   id="stop36"
   style="stop-color:rgb(165,102,139);stop-opacity: 1"
   offset="100%" />
</linearGradient>
<path
   id="path39"
   d="m 0,168.55 v 33.28 C 0,201.83 141.45,164.26 126.41,0 126.41,0 110.85,126.68 0,168.55 Z"
   transform="translate(-63.76,-100.92)"
   style="opacity:1;fill:url(#SVGID_35);fill-rule:nonzero;stroke:none;stroke-width:1;stroke-linecap:butt;stroke-linejoin:miter;stroke-miterlimit:4;stroke-dasharray:none;stroke-dashoffset:0" />
</g>
		<g
   id="g52"
   transform="matrix(0.61,0,0,0.61,-39.84,41.81)">
<linearGradient
   y2="190.69"
   x2="114.6"
   y1="190.69"
   x1="0"
   gradientTransform="translate(0,137.7)"
   gradientUnits="userSpaceOnUse"
   id="SVGID_36">
<stop
   id="stop43"
   style="stop-color:rgb(14,16,61);stop-opacity: 1"
   offset="0%" />
<stop
   id="stop45"
   style="stop-color:rgb(211,188,192);stop-opacity: 1"
   offset="50%" />
<stop
   id="stop47"
   style="stop-color:rgb(165,102,139);stop-opacity: 1"
   offset="100%" />
</linearGradient>
<path
   id="path50"
   d="m 0,222.23 v 21.47 c 0,0 87.77,-10.19 114.6,-106 0,-0.01 -44.55,68.42 -114.6,84.53 z"
   transform="translate(-57.3,-190.7)"
   style="opacity:1;fill:url(#SVGID_36);fill-rule:nonzero;stroke:none;stroke-width:1;stroke-linecap:butt;stroke-linejoin:miter;stroke-miterlimit:4;stroke-dasharray:none;stroke-dashoffset:0" />
</g>
		<g
   id="g63"
   transform="matrix(0.61,0,0,0.61,17.99,-60.31)">
<linearGradient
   y2="22.549999"
   x2="167.88"
   y1="22.549999"
   x1="137.14999"
   gradientTransform="translate(137.15)"
   gradientUnits="userSpaceOnUse"
   id="SVGID_37">
<stop
   id="stop54"
   style="stop-color:rgb(14,16,61);stop-opacity: 1"
   offset="0%" />
<stop
   id="stop56"
   style="stop-color:rgb(211,188,192);stop-opacity: 1"
   offset="50%" />
<stop
   id="stop58"
   style="stop-color:rgb(165,102,139);stop-opacity: 1"
   offset="100%" />
</linearGradient>
<path
   id="path61"
   d="m 137.15,0 h 18.25 c 0,0 14,26.3 12.35,45.09 0,0 -9.67,-27.91 -30.6,-45.09 z"
   transform="translate(-152.52,-22.55)"
   style="opacity:1;fill:url(#SVGID_37);fill-rule:nonzero;stroke:none;stroke-width:1;stroke-linecap:butt;stroke-linejoin:miter;stroke-miterlimit:4;stroke-dasharray:none;stroke-dashoffset:0" />
</g>
		<g
   id="g74"
   transform="matrix(0.61,0,0,0.61,35.92,-60.31)">
<linearGradient
   y2="22.549999"
   x2="196.2"
   y1="22.549999"
   x1="167.88"
   gradientTransform="translate(167.88)"
   gradientUnits="userSpaceOnUse"
   id="SVGID_38">
<stop
   id="stop65"
   style="stop-color:rgb(14,16,61);stop-opacity: 1"
   offset="0%" />
<stop
   id="stop67"
   style="stop-color:rgb(211,188,192);stop-opacity: 1"
   offset="50%" />
<stop
   id="stop69"
   style="stop-color:rgb(165,102,139);stop-opacity: 1"
   offset="100%" />
</linearGradient>
<path
   id="path72"
   d="m 167.88,0 h 16.51 c 0,0 10.74,35.43 11.81,45.09 0,0 -24.44,-41.33 -28.32,-45.09 z"
   transform="translate(-182.04,-22.55)"
   style="opacity:1;fill:url(#SVGID_38);fill-rule:nonzero;stroke:none;stroke-width:1;stroke-linecap:butt;stroke-linejoin:miter;stroke-miterlimit:4;stroke-dasharray:none;stroke-dashoffset:0" />
</g>
		<g
   id="g85"
   transform="matrix(0.61,0,0,0.61,57.15,0)">
<linearGradient
   y2="121.85"
   x2="246.39"
   y1="121.85"
   x1="187.61"
   gradientTransform="translate(187.61)"
   gradientUnits="userSpaceOnUse"
   id="SVGID_39">
<stop
   id="stop76"
   style="stop-color:rgb(14,16,61);stop-opacity: 1"
   offset="0%" />
<stop
   id="stop78"
   style="stop-color:rgb(211,188,192);stop-opacity: 1"
   offset="50%" />
<stop
   id="stop80"
   style="stop-color:rgb(165,102,139);stop-opacity: 1"
   offset="100%" />
</linearGradient>
<path
   id="path83"
   d="m 202.64,0 c 0,0 21.47,41.87 -2.15,53.14 0,0 8,1.61 23.62,-11.27 0,0 31.94,133.92 -36.5,201.83 h 58.78 V 0 Z"
   transform="translate(-217,-121.85)"
   style="opacity:1;fill:url(#SVGID_39);fill-rule:nonzero;stroke:none;stroke-width:1;stroke-linecap:butt;stroke-linejoin:miter;stroke-miterlimit:4;stroke-dasharray:none;stroke-dashoffset:0" />
</g>
		<g
   id="g96"
   transform="matrix(0.61,0,0,0.61,25.61,-14.79)">
<linearGradient
   y2="97.5"
   x2="200.49001"
   y1="97.5"
   x1="129.63"
   gradientTransform="translate(129.63,86.95)"
   gradientUnits="userSpaceOnUse"
   id="SVGID_40">
<stop
   id="stop87"
   style="stop-color:rgb(14,16,61);stop-opacity: 1"
   offset="0%" />
<stop
   id="stop89"
   style="stop-color:rgb(211,188,192);stop-opacity: 1"
   offset="50%" />
<stop
   id="stop91"
   style="stop-color:rgb(165,102,139);stop-opacity: 1"
   offset="100%" />
</linearGradient>
<path
   id="path94"
   d="m 130.84,100.91 c 0,0 39.59,-23.51 69.65,-9.52 0,0 -26.69,-3 -41.47,5.64 0,0 -25.56,14.92 -28.18,10.06 0,0 -2.73,-3.74 0,-6.18 z"
   transform="translate(-165.06,-97.5)"
   style="opacity:1;fill:url(#SVGID_40);fill-rule:nonzero;stroke:none;stroke-width:1;stroke-linecap:butt;stroke-linejoin:miter;stroke-miterlimit:4;stroke-dasharray:none;stroke-dashoffset:0" />
</g>
		<g
   id="g107"
   transform="matrix(0.61,0,0,0.61,28.87,2.26)">
<linearGradient
   y2="125.54"
   x2="203.71001"
   y1="125.54"
   x1="137.14999"
   gradientTransform="translate(137.15,116)"
   gradientUnits="userSpaceOnUse"
   id="SVGID_41">
<stop
   id="stop98"
   style="stop-color:rgb(14,16,61);stop-opacity: 1"
   offset="0%" />
<stop
   id="stop100"
   style="stop-color:rgb(211,188,192);stop-opacity: 1"
   offset="50%" />
<stop
   id="stop102"
   style="stop-color:rgb(165,102,139);stop-opacity: 1"
   offset="100%" />
</linearGradient>
<path
   id="path105"
   d="m 137.15,124.4 c 0,0 34.76,27.78 66.56,-6 l -16.1,-2.4 c 0,0 -7.92,22.09 -50.46,8.4 z"
   transform="translate(-170.43,-125.57)"
   style="opacity:1;fill:url(#SVGID_41);fill-rule:nonzero;stroke:none;stroke-width:1;stroke-linecap:butt;stroke-linejoin:miter;stroke-miterlimit:4;stroke-dasharray:none;stroke-dashoffset:0" />
</g>
</g>
</g>
</svg>